<?xml version="1.0" encoding="utf-8"?>
<!-- Generator: Adobe Illustrator 16.0.0, SVG Export Plug-In . SVG Version: 6.00 Build 0)  -->
<!DOCTYPE svg PUBLIC "-//W3C//DTD SVG 1.1//EN" "http://www.w3.org/Graphics/SVG/1.1/DTD/svg11.dtd">
<svg version="1.1" id="Layer_1" xmlns="http://www.w3.org/2000/svg" xmlns:xlink="http://www.w3.org/1999/xlink" x="0px" y="0px"
	 width="239.826px" height="126.874px" viewBox="0 0 239.826 126.874" enable-background="new 0 0 239.826 126.874"
	 xml:space="preserve">
<g>
	<g>
		<path fill="#FFFFFF" d="M85.057,69.336c-5.776,0-10.96,2.521-14.519,6.523c-2.093,1.198-4.517,1.889-7.101,1.889
			c-7.903,0-14.311-6.407-14.311-14.31c0-7.904,6.407-14.311,14.311-14.311c3.859,0,7.355,1.535,9.928,4.019l0.056-0.069
			c3.242,2.432,7.271,3.871,11.636,3.871c10.73,0,19.431-8.7,19.431-19.43c0-5.889-2.623-11.158-6.758-14.723l0,0
			c-0.003-0.002-0.005-0.004-0.009-0.006c-0.464-0.402-0.947-0.779-1.451-1.135c-9.049-6.91-20.674-12.004-32.832-12.004
			c-29.704,0-53.787,24.08-53.787,53.787c0,29.704,24.083,53.784,53.787,53.784c12.515,0,24.022-5.559,33.16-12.826
			c0.389-0.289,0.766-0.594,1.132-0.91l0,0c4.135-3.563,6.758-8.834,6.758-14.721C104.487,78.035,95.787,69.336,85.057,69.336"/>
		<path fill="#FFFFFF" d="M63.438,126.875C28.458,126.875,0,98.418,0,63.438C0,28.458,28.458,0,63.438,0
			c13.088,0,26.772,4.929,38.551,13.879c0.604,0.433,1.199,0.896,1.774,1.38l0.587,0.506c6.227,5.527,9.789,13.43,9.789,21.754
			c0,11.066-6.215,20.711-15.339,25.623c9.124,4.913,15.339,14.556,15.339,25.624c0,8.466-3.686,16.496-10.109,22.031
			c-0.494,0.428-1.012,0.847-1.543,1.246C93.918,118.832,80.223,126.875,63.438,126.875z M63.438,19.302
			c-24.336,0-44.135,19.801-44.135,44.137c0,24.335,19.799,44.134,44.135,44.134c11.293,0,20.998-5.835,27.152-10.729l0.264-0.205
			c0.2-0.146,0.393-0.307,0.581-0.467c2.159-1.862,3.401-4.562,3.401-7.406c0-5.393-4.387-9.779-9.779-9.779
			c-2.828,0-5.422,1.168-7.307,3.287l-1.048,1.178l-1.368,0.783c-3.615,2.07-7.73,3.166-11.896,3.166
			c-13.213,0-23.961-10.75-23.961-23.962c0-13.213,10.748-23.961,23.961-23.961c2.602,0,5.146,0.416,7.556,1.217l0.698-0.867
			l4.707,3.46c0.807,0.522,1.588,1.095,2.335,1.718l0.479,0.352c1.69,1.27,3.713,1.939,5.845,1.939c5.393,0,9.779-4.385,9.779-9.777
			c0-2.758-1.168-5.381-3.213-7.238l-0.431-0.371c-0.154-0.125-0.312-0.244-0.474-0.358l-0.307-0.226
			C81.947,22.862,72.367,19.302,63.438,19.302z M63.438,58.78c-2.569,0-4.659,2.09-4.659,4.658c0,2.569,2.09,4.659,4.659,4.659
			c0.477,0,0.938-0.07,1.379-0.209c1.697-1.645,3.578-3.065,5.594-4.239l-3.748-3.559C66.155,59.601,65.062,58.78,63.438,58.78z"/>
	</g>
	<g>
		<path fill="#316C36" d="M66.041,86.221c0-3.23,0.961-6.24,2.607-8.76c-1.871,0.807-3.934,1.268-6.104,1.268
			c-3.279,0-6.318-1.029-8.816-2.773c-4.087-1.756-9.089-1.785-13.021,0.084c-7.373,3.507-10.52,12.359-7.013,19.734
			c0.964,2.025,2.527,4.133,4.05,5.512c7.129,4.663,15.645,7.385,24.801,7.385c8.999,0,17.382-2.622,24.435-7.143
			c-1.536,0.492-3.175,0.758-4.872,0.758C73.248,102.285,66.041,95.08,66.041,86.221"/>
	</g>
	<g>
		<path fill="#316C36" d="M39.627,73.77c3.184-1.515,6.869-1.98,10.4-1.461c-1.822-2.531-2.904-5.639-2.904-9.001
			c0-3.658,1.277-7.016,3.407-9.66c-0.856,0.105-1.706,0.166-2.519,0.166c-9.55,0-17.322-7.771-17.322-17.322
			c0-2.375,0.491-4.68,1.396-6.797c-9.154,8.299-14.902,20.285-14.902,33.613c0,12.796,5.305,24.345,13.826,32.591
			C27.602,87.479,31.318,77.721,39.627,73.77"/>
	</g>
	<g>
		<path fill="#316C36" d="M33.203,36.491c0,8.164,6.642,14.809,14.809,14.809c2.137,0,4.617-0.459,6.511-1.162
			c2.339-1.426,5.084-2.248,8.022-2.248c2.277,0,4.439,0.498,6.386,1.385c-1.821-2.604-2.892-5.768-2.892-9.178
			c0-8.859,7.208-16.066,16.068-16.066c1.363,0,2.691,0.172,3.957,0.494c-6.861-4.17-14.907-6.579-23.52-6.579
			c-7.902,0-15.332,2.024-21.803,5.578l0.029,0.05C36.102,26.196,33.203,31.147,33.203,36.491"/>
	</g>
	<g>
		<path fill="#7DC242" d="M82.107,72.666c-7.474,0-13.555,6.078-13.555,13.555c0,7.473,6.081,13.551,13.555,13.551
			c7.473,0,13.553-6.078,13.553-13.551C95.66,78.744,89.58,72.666,82.107,72.666"/>
	</g>
	<g>
		<path fill="#7DC242" d="M82.107,26.544c-7.474,0-13.555,6.08-13.555,13.553s6.081,13.553,13.555,13.553
			c7.473,0,13.553-6.08,13.553-13.553S89.58,26.544,82.107,26.544"/>
	</g>
	<g>
		<rect x="112.211" y="48.993" fill="#F6933E" width="1.156" height="11.555"/>
	</g>
	<g>
		<polygon fill="#F6933E" points="120.578,60.548 120.578,48.993 120.828,48.993 128.52,57.851 128.52,48.993 129.657,48.993 
			129.657,60.548 129.398,60.548 121.772,51.8 121.772,60.548 		"/>
	</g>
	<g>
		<g>
			<path fill="#F6933E" d="M148.117,50.935l-0.896,0.848c-0.643-0.635-1.348-1.113-2.115-1.439c-0.768-0.33-1.517-0.492-2.244-0.492
				c-0.904,0-1.769,0.223-2.588,0.668s-1.453,1.049-1.904,1.811c-0.451,0.761-0.675,1.567-0.675,2.414
				c0,0.869,0.233,1.695,0.697,2.479c0.466,0.783,1.11,1.398,1.934,1.846c0.821,0.447,1.722,0.672,2.702,0.672
				c1.189,0,2.193-0.336,3.015-1.006c0.823-0.668,1.31-1.539,1.462-2.607h-3.684v-1.115h4.979c-0.01,1.785-0.542,3.203-1.591,4.252
				c-1.05,1.051-2.454,1.576-4.214,1.576c-2.136,0-3.827-0.729-5.073-2.184c-0.959-1.121-1.438-2.416-1.438-3.888
				c0-1.095,0.273-2.112,0.824-3.056c0.55-0.943,1.304-1.68,2.263-2.211c0.958-0.531,2.041-0.798,3.251-0.798
				c0.979,0,1.902,0.178,2.766,0.532C146.451,49.588,147.295,50.153,148.117,50.935"/>
		</g>
	</g>
	<g>
		<polygon fill="#F6933E" points="155.742,48.993 162.362,48.993 162.362,50.126 156.896,50.126 156.896,53.745 162.316,53.745 
			162.316,54.876 156.896,54.876 156.896,59.417 162.316,59.417 162.316,60.55 155.742,60.55 		"/>
	</g>
	<g>
		<polygon fill="#F6933E" points="168.635,60.548 168.635,48.993 168.887,48.993 176.574,57.851 176.574,48.993 177.713,48.993 
			177.713,60.548 177.455,60.548 169.828,51.8 169.828,60.548 		"/>
	</g>
	<g>
		<rect x="184.957" y="48.993" fill="#F6933E" width="1.154" height="11.555"/>
	</g>
	<g>
		<g>
			<path fill="#F6933E" d="M198.911,49.827c-0.854,0-1.664,0.223-2.432,0.668c-0.765,0.445-1.362,1.045-1.794,1.801
				c-0.43,0.755-0.645,1.596-0.645,2.523c0,1.371,0.476,2.531,1.428,3.477c0.951,0.947,2.099,1.42,3.442,1.42
				c0.896,0,1.726-0.219,2.488-0.652c0.763-0.436,1.358-1.029,1.788-1.785c0.426-0.756,0.641-1.592,0.641-2.516
				c0-0.916-0.215-1.746-0.641-2.488c-0.43-0.74-1.03-1.334-1.807-1.779C200.605,50.05,199.782,49.827,198.911,49.827
				 M198.859,48.703c1.751,0,3.213,0.585,4.395,1.751c1.178,1.168,1.768,2.605,1.768,4.313c0,1.69-0.588,3.126-1.764,4.304
				c-1.178,1.18-2.612,1.768-4.304,1.768c-1.716,0-3.161-0.586-4.339-1.76c-1.18-1.174-1.769-2.592-1.769-4.256
				c0-1.109,0.267-2.141,0.804-3.088c0.539-0.947,1.27-1.689,2.199-2.225C196.777,48.972,197.78,48.703,198.859,48.703"/>
		</g>
	</g>
	<g>
		<polygon fill="#306E3F" points="112.289,66.326 114.49,66.326 114.49,75.783 117.695,75.783 117.695,77.882 112.289,77.882 		"/>
	</g>
	<g>
		<path fill="#306E3F" d="M128.455,69.391l-1.551,3.966h3.091L128.455,69.391z M127.324,66.326h2.232L134,77.882h-2.285l-0.904-2.38
			h-4.715l-0.939,2.38h-2.286L127.324,66.326z"/>
	</g>
	<g>
		<g>
			<path fill="#306E3F" d="M160.025,68.357l-1.539,1.466c-1.048-1.104-2.225-1.66-3.531-1.66c-1.105,0-2.035,0.378-2.791,1.134
				c-0.755,0.756-1.132,1.686-1.132,2.791c0,0.77,0.167,1.455,0.501,2.051c0.335,0.6,0.809,1.068,1.419,1.408
				c0.612,0.342,1.294,0.512,2.042,0.512c0.637,0,1.222-0.119,1.75-0.357c0.527-0.238,1.109-0.672,1.742-1.303l1.49,1.557
				c-0.854,0.834-1.66,1.41-2.42,1.732c-0.756,0.324-1.625,0.484-2.599,0.484c-1.798,0-3.268-0.57-4.411-1.709
				c-1.143-1.139-1.715-2.6-1.715-4.379c0-1.152,0.26-2.176,0.781-3.071c0.52-0.896,1.267-1.614,2.238-2.159
				c0.971-0.545,2.018-0.818,3.138-0.818c0.953,0,1.872,0.203,2.753,0.605S159.385,67.613,160.025,68.357"/>
		</g>
	</g>
	<g>
		<path fill="#306E3F" d="M171.189,69.391l-1.55,3.966h3.091L171.189,69.391z M170.061,66.326h2.231l4.444,11.556h-2.285
			l-0.906-2.38h-4.713l-0.939,2.38h-2.287L170.061,66.326z"/>
	</g>
	<g>
		<g>
			<path fill="#306E3F" d="M185.068,72.822v2.961h0.553c0.911,0,1.527-0.115,1.846-0.344c0.317-0.232,0.475-0.566,0.475-1.006
				c0-0.498-0.187-0.891-0.559-1.18c-0.373-0.287-0.992-0.432-1.857-0.432H185.068z M185.068,68.424v2.436h0.479
				c0.537,0,0.935-0.113,1.196-0.338c0.26-0.225,0.39-0.531,0.39-0.918c0-0.361-0.124-0.65-0.372-0.861
				c-0.246-0.213-0.62-0.318-1.125-0.318H185.068z M182.869,77.882V66.326h1.815c1.056,0,1.826,0.068,2.313,0.205
				c0.69,0.184,1.242,0.523,1.652,1.021c0.409,0.498,0.612,1.083,0.612,1.76c0,0.439-0.095,0.838-0.278,1.196
				c-0.186,0.36-0.489,0.696-0.908,1.011c0.703,0.328,1.215,0.742,1.539,1.238c0.326,0.494,0.488,1.078,0.488,1.754
				c0,0.648-0.168,1.24-0.504,1.774s-0.768,0.935-1.299,1.198c-0.529,0.264-1.258,0.397-2.191,0.397H182.869z"/>
		</g>
	</g>
	<g>
		<path fill="#306E3F" d="M201.451,69.391l-1.551,3.966h3.09L201.451,69.391z M200.322,66.326h2.229l4.446,11.556h-2.287
			l-0.904-2.38h-4.715l-0.939,2.38h-2.285L200.322,66.326z"/>
	</g>
	<g>
		<g>
			<path fill="#306E3F" d="M215.502,65.4l-0.863-1.293c0.67-0.515,1.347-0.774,2.032-0.774c0.257,0,0.697,0.088,1.321,0.264
				c0.424,0.113,0.76,0.17,1.012,0.17c0.44,0,0.896-0.133,1.367-0.4l0.816,1.222c-0.66,0.562-1.299,0.846-1.916,0.846
				c-0.33,0-0.725-0.07-1.188-0.211c-0.375-0.105-0.613-0.172-0.712-0.193c-0.138-0.02-0.299-0.029-0.489-0.029
				C216.422,65,215.963,65.135,215.502,65.4 M213.302,66.326h2.111l4.944,7.605v-7.605h2.197v11.556h-2.115l-4.938-7.581v7.581h-2.2
				V66.326z"/>
		</g>
	</g>
	<g>
		<path fill="#306E3F" d="M234.279,69.391l-1.55,3.966h3.093L234.279,69.391z M233.15,66.326h2.231l4.444,11.556h-2.285l-0.905-2.38
			h-4.714l-0.939,2.38h-2.287L233.15,66.326z"/>
	</g>
</g>
</svg>
