<svg id="Layer_1" data-name="Layer 1" xmlns="http://www.w3.org/2000/svg" viewBox="0 0 253.21 64">
  <title>logo</title>
  <g>
    <g>
      <g>
        <path d="M87.61,28H79.78L69.72,52.76H60.37L70.43,28H62.82l3-7.42H90.62Z" transform="translate(-3.08 -2)" style="fill: #59595c"/>
        <path d="M106.06,20.66a8.62,8.62,0,0,1,4,1.19,5.93,5.93,0,0,1,2.19,2.37,6.33,6.33,0,0,1,.61,3.11,10.46,10.46,0,0,1-.74,3.35,12.56,12.56,0,0,1-1.66,3,13.92,13.92,0,0,1-2,2.17,11.66,11.66,0,0,1-2.2,1.51c-.76.38-1.49.73-2.19,1a3.56,3.56,0,0,1,2.5,2.8,8.6,8.6,0,0,1-.65,5l-2.67,6.6H95a1.7,1.7,0,0,1-1.11-.47,1.09,1.09,0,0,1-.2-1.37l2.92-7.21a1.4,1.4,0,0,0-.08-1.35,1.32,1.32,0,0,0-1.14-.57H93.52l-4.42,11H79.44l12.9-32.13h13.72ZM102,30a1.53,1.53,0,0,0,0-1.35,1.17,1.17,0,0,0-1.08-.58H99.11l-2.06,5h1.79a2.45,2.45,0,0,0,1.5-.57,3.19,3.19,0,0,0,1.11-1.35Z" transform="translate(-3.08 -2)" style="fill: #59595c"/>
        <path d="M130.18,20.11a12.88,12.88,0,0,1,5,.86,6.44,6.44,0,0,1,3.09,2.59,7.64,7.64,0,0,1,1,4.18,16.63,16.63,0,0,1-1.25,5.62c-.76,2-1.52,3.93-2.26,5.7s-1.47,3.49-2.2,5.18A26.67,26.67,0,0,1,131.16,49a9.52,9.52,0,0,1-2.62,2.72A7.89,7.89,0,0,1,125.36,53a26.87,26.87,0,0,1-4.09.28h-4.41a11.76,11.76,0,0,1-3.59-.55,5.58,5.58,0,0,1-2.75-1.86,5.93,5.93,0,0,1-1.19-3.48A13.23,13.23,0,0,1,110.46,42l1.66-4.16c.51-1.22,1-2.57,1.62-4s1.17-2.91,1.75-4.33a17.67,17.67,0,0,1,2-3.82,13.35,13.35,0,0,1,2.84-3,12.83,12.83,0,0,1,3.59-1.9,13.15,13.15,0,0,1,4.29-.67ZM128.92,30a1.46,1.46,0,0,0,0-1.35,1.21,1.21,0,0,0-1.11-.58,2.39,2.39,0,0,0-1.58.43,3.91,3.91,0,0,0-.91,1.55l-5.46,13.54c-.44,1.1-.56,1.83-.37,2.14a1.18,1.18,0,0,0,1.11.48,2.7,2.7,0,0,0,1.57-.41,3.19,3.19,0,0,0,1.05-1.51Z" transform="translate(-3.08 -2)" style="fill: #59595c"/>
        <path d="M160,20.63a7.29,7.29,0,0,1,3.18.64,4.9,4.9,0,0,1,2.95,4.34,7.39,7.39,0,0,1-.61,3.19l-2.46,6.35a14.76,14.76,0,0,1-3.53,5,12.63,12.63,0,0,1-2.67,2,13,13,0,0,1-2.84,1.15,18.56,18.56,0,0,1-3,.5c-1,.06-2.11.11-3.25.11h-1.88l-3.68,8.87h-9.62l12.9-32.13Zm-5,9.34a1.42,1.42,0,0,0,0-1.35A1.17,1.17,0,0,0,154,28h-1.72l-3.15,7.7h1.75a2.67,2.67,0,0,0,1.56-.57,3.61,3.61,0,0,0,1.11-1.36Z" transform="translate(-3.08 -2)" style="fill: #59595c"/>
        <path d="M167.83,52.76h-9.36l13.08-32.13h9.35Z" transform="translate(-3.08 -2)" style="fill: #59595c"/>
        <path d="M201.72,22.94q2.08,2.84.72,8.05a2.63,2.63,0,0,1-1.12,1.48,4,4,0,0,1-2.21.57h-7.78L192.56,30a1.42,1.42,0,0,0,0-1.35,1.2,1.2,0,0,0-1.12-.58,2.34,2.34,0,0,0-1.57.43A3.78,3.78,0,0,0,189,30l-5.46,13.54c-.44,1.1-.56,1.83-.37,2.14a1.19,1.19,0,0,0,1.12.48,2.78,2.78,0,0,0,1.58-.41,3.22,3.22,0,0,0,1-1.51l.09-.18a1.24,1.24,0,0,0,.06-.85c-.08-.28-.16-.57-.26-.89a5.05,5.05,0,0,1-.21-1,2,2,0,0,1,.2-1.14l1.36-3.37h12.14l-1.7,4.28L194,52.76c-.65.08-1.57.17-2.76.26-1,.05-2.39.1-4.13.14s-3.92.07-6.58.07a10.43,10.43,0,0,1-3.8-.65,5.48,5.48,0,0,1-2.65-2A6.52,6.52,0,0,1,173,47,13.3,13.3,0,0,1,174.12,42l1.66-4.16c.49-1.22,1-2.57,1.61-4s1.17-2.91,1.75-4.33a17.64,17.64,0,0,1,2.06-3.82,12.7,12.7,0,0,1,2.84-3,13,13,0,0,1,3.57-1.9,13.21,13.21,0,0,1,4.29-.67h1.92C197.7,20.11,200.34,21,201.72,22.94Z" transform="translate(-3.08 -2)" style="fill: #59595c"/>
        <path d="M220.1,20.11a18.63,18.63,0,0,1,4.8.52,7.76,7.76,0,0,1,3,1.45,4.79,4.79,0,0,1,1.52,2.14,6,6,0,0,1,.28,2.57,6.62,6.62,0,0,1-.43,2.37l-9.56,23.61h-9.45l2.84-7.31h-4l-2.92,7.31h-9.67l10.62-26.28a9.53,9.53,0,0,1,1.49-2.62,7.37,7.37,0,0,1,1.56-1.62,7.86,7.86,0,0,1,2.24-1.19,15.83,15.83,0,0,1,3.24-.71A35.26,35.26,0,0,1,220.1,20.11Zm-1,9.86a1.5,1.5,0,0,0,0-1.35,1.1,1.1,0,0,0-1.05-.58,2.65,2.65,0,0,0-1.55.58A3.58,3.58,0,0,0,215.42,30l-2.71,6.61h3.81Z" transform="translate(-3.08 -2)" style="fill: #59595c"/>
        <path d="M245.93,20.11a15.79,15.79,0,0,1,5.42.84,8,8,0,0,1,3.52,2.39,6.43,6.43,0,0,1,1.39,3.74,11.09,11.09,0,0,1-.93,4.91h-7.79a2.5,2.5,0,0,1-1.38-.36c-.36-.22-.47-.65-.32-1.26,0-.12.05-.23.08-.3s.07-.19.09-.31a.71.71,0,0,0,.13-.4,4.17,4.17,0,0,0,.17-1.59c-.06-.42-.39-.63-1-.63a2.38,2.38,0,0,0-1.74.66A6.88,6.88,0,0,0,242.35,30a1.57,1.57,0,0,0,.36,1.7,12.82,12.82,0,0,0,1.87,1.69c.78.6,1.62,1.26,2.51,2a10.74,10.74,0,0,1,2.29,2.55,7.81,7.81,0,0,1,1.16,3.38,9.4,9.4,0,0,1-.84,4.52,14.34,14.34,0,0,1-1.93,3.52,8.57,8.57,0,0,1-2.64,2.3,11.36,11.36,0,0,1-3.6,1.25,26.85,26.85,0,0,1-4.81.37,15.56,15.56,0,0,1-5.42-.84A7.73,7.73,0,0,1,227.78,50a6.46,6.46,0,0,1-1.39-3.76,11.46,11.46,0,0,1,.93-5h7.74a2.25,2.25,0,0,1,1.53.49c.37.35.37.93,0,1.78a1.28,1.28,0,0,0-.11.31c0,.08,0,.16,0,.21a3.55,3.55,0,0,0-.11,1.49c.07.42.39.61.95.61a2.32,2.32,0,0,0,1.74-.65,6.72,6.72,0,0,0,1.28-2.19,1.55,1.55,0,0,0-.36-1.67A11.93,11.93,0,0,0,238.07,40q-1.17-.9-2.51-2a11,11,0,0,1-2.27-2.52,7.66,7.66,0,0,1-1.17-3.39,9.37,9.37,0,0,1,.84-4.53A14.6,14.6,0,0,1,234.88,24a8.61,8.61,0,0,1,2.64-2.3,11.14,11.14,0,0,1,3.6-1.24A26.87,26.87,0,0,1,245.93,20.11Z" transform="translate(-3.08 -2)" style="fill: #59595c"/>
      </g>
      <g>
        <path d="M3.2,35.94l11.92-.15S15.9,24.22,26.23,21C26.23,21,7,21.17,3.2,35.94Z" transform="translate(-3.08 -2)" style="fill: #9f1c2f"/>
        <path d="M3.08,37.82,15,38s.78,11.6,11.13,14.79C26.13,52.76,6.91,52.62,3.08,37.82Z" transform="translate(-3.08 -2)" style="fill: #9f1c2f"/>
        <path d="M58.17,35.94,46.25,35.8S45.46,24.22,35.12,21C35.12,21,54.34,21.17,58.17,35.94Z" transform="translate(-3.08 -2)" style="fill: #9f1c2f"/>
        <path d="M58.39,37.82,46.48,38s-.8,11.6-11.13,14.79C35.34,52.76,54.57,52.62,58.39,37.82Z" transform="translate(-3.08 -2)" style="fill: #9f1c2f"/>
        <path d="M29.38,22.62V35.8H17.24S18.49,23.92,29.38,22.62Z" transform="translate(-3.08 -2)" style="fill: #9f1c2f"/>
        <path d="M32.09,22.62V35.8H44.22S43,23.92,32.09,22.62Z" transform="translate(-3.08 -2)" style="fill: #9f1c2f"/>
        <path d="M29.38,51.31V38.12H17.24S18.49,50,29.38,51.31Z" transform="translate(-3.08 -2)" style="fill: #9f1c2f"/>
        <path d="M32.09,51.31V38.12H44.22S43,50,32.09,51.31Z" transform="translate(-3.08 -2)" style="fill: #9f1c2f"/>
      </g>
      <path d="M181.13,2s.44,2.31-3.7,4.52S171.78,10.32,172,13a6,6,0,0,0,2.51,4.15,4.22,4.22,0,0,0,1.28.57,2.8,2.8,0,0,1-1.16-1.93c-.09-1.22.6-2,2.54-3s1.73-2.1,1.73-2.1,1.83,3.06,1.4,4.84a3.23,3.23,0,0,1-2,2.25,6.18,6.18,0,0,0,1.41-.46,6.94,6.94,0,0,0,4.41-4.89C185.07,8.55,181.13,2,181.13,2Z" transform="translate(-3.08 -2)" style="fill: #9f1c2f"/>
    </g>
    <g>
      <path d="M107.81,59.16h1.43l-1,5.48h2.59l-.24,1.26h-4Z" transform="translate(-3.08 -2)" style="fill: #231f20"/>
      <path d="M114.5,64.14l-.8,1.75h-1.53l3.27-6.73h1.85l.79,6.73h-1.52l-.13-1.75Zm1.88-1.1-.13-1.46c0-.37-.07-.9-.1-1.31h0c-.16.42-.36.94-.53,1.31L114.92,63Z" transform="translate(-3.08 -2)" style="fill: #231f20"/>
      <path d="M124.13,59.16h1.44l-1,5.48h2.58l-.24,1.26h-4Z" transform="translate(-3.08 -2)" style="fill: #231f20"/>
      <path d="M130.1,59.16h1.43l-1,5.48h2.58l-.24,1.26h-4Z" transform="translate(-3.08 -2)" style="fill: #231f20"/>
      <path d="M136.78,64.14,136,65.89h-1.53l3.28-6.73h1.85l.78,6.73h-1.5l-.14-1.75Zm1.89-1.1-.13-1.46c0-.37-.07-.9-.11-1.31h0c-.17.42-.36.94-.54,1.31L137.21,63Z" transform="translate(-3.08 -2)" style="fill: #231f20"/>
      <path d="M147.82,65.89l.41-2.78c.11-.73.26-1.66.45-2.63h0c-.37.86-.79,1.8-1.17,2.54l-1.37,2.75H145L144.75,63c-.05-.74-.11-1.66-.14-2.56h0c-.2.89-.4,1.9-.57,2.63l-.66,2.78H142l1.69-6.73h1.93l.21,2.55c0,.64.1,1.41.12,2.16h0c.25-.75.62-1.55.9-2.16l1.25-2.55h2l-.91,6.73Z" transform="translate(-3.08 -2)" style="fill: #231f20"/>
      <path d="M153.36,64.14l-.8,1.75H151l3.27-6.73h1.85l.8,6.73h-1.52l-.13-1.75Zm1.87-1.1-.13-1.46c0-.37-.07-.9-.1-1.31h0c-.16.42-.36.94-.53,1.31L153.77,63Z" transform="translate(-3.08 -2)" style="fill: #231f20"/>
      <path d="M163,59.26a11.21,11.21,0,0,1,1.86-.15,3.67,3.67,0,0,1,2.45.73,2.63,2.63,0,0,1,.89,2.1,4,4,0,0,1-1.39,3.1,4.93,4.93,0,0,1-3.23.89,12,12,0,0,1-1.83-.12Zm.4,5.47a2.87,2.87,0,0,0,.62,0,2.5,2.5,0,0,0,1.91-.78,3,3,0,0,0,.7-2,1.57,1.57,0,0,0-1.78-1.68,3.16,3.16,0,0,0-.61,0Z" transform="translate(-3.08 -2)" style="fill: #231f20"/>
      <path d="M174,63h-2.41l-.3,1.61H174l-.23,1.24h-4.13l1.29-6.73h4l-.25,1.22H172.1l-.29,1.45h2.41Z" transform="translate(-3.08 -2)" style="fill: #231f20"/>
      <path d="M183.18,63h-2.39l-.31,1.61h2.7l-.24,1.24h-4.12l1.28-6.73h4l-.24,1.22H181.3L181,61.83h2.41Z" transform="translate(-3.08 -2)" style="fill: #59595c"/>
      <path d="M186.36,59.16h1.43l-1,5.48h2.58l-.24,1.26h-4Z" transform="translate(-3.08 -2)" style="fill: #59595c"/>
      <path d="M194.26,64.33a3.18,3.18,0,0,0,1.59.44c.56,0,1.06-.27,1.06-.8,0-.37-.29-.63-.9-.94s-1.41-.92-1.41-1.8c0-1.35,1.19-2.17,2.66-2.17a3.31,3.31,0,0,1,1.59.33l-.45,1.2a2.59,2.59,0,0,0-1.26-.3c-.66,0-1,.33-1,.7s.41.64,1,1a2,2,0,0,1,1.34,1.77c0,1.5-1.23,2.28-2.73,2.28a3.37,3.37,0,0,1-1.93-.49Z" transform="translate(-3.08 -2)" style="fill: #59595c"/>
      <path d="M202,64.14l-.79,1.75h-1.53l3.27-6.73h1.85l.8,6.73H204l-.13-1.75Zm1.88-1.1-.13-1.46c0-.37-.07-.9-.09-1.31h0c-.16.42-.36.94-.53,1.31L202.38,63Z" transform="translate(-3.08 -2)" style="fill: #59595c"/>
      <path d="M208.66,59.16h1.44l-1,5.48h2.58l-.24,1.26h-4Z" transform="translate(-3.08 -2)" style="fill: #59595c"/>
      <path d="M214.15,65.89l-.85-6.73h1.48l.31,3.2c.06.72.12,1.37.16,2.07h0c.24-.66.56-1.38.89-2.08l1.52-3.19h1.61l-3.48,6.73Z" transform="translate(-3.08 -2)" style="fill: #59595c"/>
      <path d="M221.23,64.14l-.8,1.75H218.9l3.28-6.73H224l.79,6.73h-1.5l-.15-1.75Zm1.88-1.1L223,61.59c0-.37-.07-.9-.11-1.31h0c-.18.42-.36.94-.55,1.31L221.65,63Z" transform="translate(-3.08 -2)" style="fill: #59595c"/>
      <path d="M227.92,59.26a10.9,10.9,0,0,1,1.84-.15,3.67,3.67,0,0,1,2.46.73,2.58,2.58,0,0,1,.89,2.1,4,4,0,0,1-1.38,3.1,4.92,4.92,0,0,1-3.23.89,11.85,11.85,0,0,1-1.83-.12Zm.39,5.47a2.76,2.76,0,0,0,.63,0,2.5,2.5,0,0,0,1.91-.78,3.06,3.06,0,0,0,.69-2,1.56,1.56,0,0,0-1.78-1.68,3.07,3.07,0,0,0-.6,0Z" transform="translate(-3.08 -2)" style="fill: #59595c"/>
      <path d="M241.25,61.86A4.49,4.49,0,0,1,240.05,65a3.47,3.47,0,0,1-2.48,1,2.6,2.6,0,0,1-2.72-2.8A4.45,4.45,0,0,1,236.08,60a3.53,3.53,0,0,1,2.46-1A2.56,2.56,0,0,1,241.25,61.86Zm-4-1.11a3.66,3.66,0,0,0-.83,2.4c0,.94.42,1.65,1.41,1.65a1.7,1.7,0,0,0,1.13-.49,3.92,3.92,0,0,0,.81-2.42c0-.83-.29-1.65-1.36-1.65A1.6,1.6,0,0,0,237.21,60.75Z" transform="translate(-3.08 -2)" style="fill: #59595c"/>
      <path d="M244,59.29a7.73,7.73,0,0,1,1.8-.18,3.61,3.61,0,0,1,1.78.39,1.46,1.46,0,0,1,.74,1.33,2,2,0,0,1-1.53,1.88v0c.39.17.57.63.63,1.24a11.7,11.7,0,0,0,.27,1.91h-1.49a14.72,14.72,0,0,1-.2-1.59c-.05-.83-.33-1.06-.9-1.06h-.44l-.51,2.65h-1.42Zm.88,2.86h.6A1.21,1.21,0,0,0,246.77,61c0-.53-.45-.77-1-.77a1.75,1.75,0,0,0-.56.06Z" transform="translate(-3.08 -2)" style="fill: #59595c"/>
    </g>
  </g>
</svg>
