<svg id="Capa_1" enable-background="new 0 0 512 512" height="512" viewBox="0 0 512 512" width="512" xmlns="http://www.w3.org/2000/svg"><g><path d="m245.688 79.486h26.911c1.707 0 3.091 1.384 3.091 3.091v103.939l15.702-15.703c1.353-1.353 3.15-2.097 5.063-2.097 1.571 0 3.056.503 4.296 1.457 8.238 6.329 15.874 13.399 22.844 21.084v-108.68c0-1.707 1.384-3.091 3.091-3.091h25.944c2.522 0 3.982-2.858 2.504-4.901l-53.009-73.305c-1.227-1.697-3.752-1.708-4.994-.021l-53.933 73.305c-1.501 2.041-.043 4.922 2.49 4.922z" fill="#05e39c"/><g><g><path d="m313.9 17.562-11.775-16.282c-1.227-1.697-3.752-1.708-4.994-.02l-53.933 73.305c-1.502 2.041-.044 4.922 2.489 4.922h22.652z" fill="#0ed290"/></g></g><path d="m283.223 407.952c0-51.071 37.347-93.576 86.163-101.657-.043-7.346-.533-14.586-1.463-21.689-.528-4.031-3.996-7.03-8.062-7.03h-38.193c-3.599 0-6.744-2.376-7.778-5.823-2.405-8.022-5.599-15.702-9.5-22.947-1.707-3.171-1.166-7.075 1.381-9.622l26.995-26.995c2.875-2.875 3.204-7.451.727-10.676-9.264-12.059-20.074-22.869-32.133-32.133-3.225-2.477-7.8-2.149-10.676.727l-26.995 26.995c-2.546 2.546-6.451 3.088-9.622 1.381-7.245-3.901-14.925-7.094-22.947-9.5-3.447-1.034-5.823-4.179-5.823-7.778v-38.193c0-4.065-2.999-7.534-7.03-8.062-7.438-.974-15.022-1.48-22.726-1.48s-15.288.507-22.726 1.48c-4.031.528-7.03 3.996-7.03 8.062v38.193c0 3.599-2.376 6.744-5.823 7.778-8.022 2.405-15.702 5.599-22.947 9.5-3.171 1.707-7.075 1.166-9.622-1.381l-26.995-26.995c-2.875-2.875-7.451-3.204-10.676-.727-12.059 9.264-22.869 20.074-32.133 32.133-2.477 3.225-2.149 7.8.727 10.676l26.995 26.995c2.546 2.546 3.088 6.451 1.381 9.622-3.9 7.245-7.094 14.925-9.5 22.947-1.034 3.447-4.179 5.823-7.778 5.823h-38.191c-4.065 0-7.534 2.999-8.061 7.03-.974 7.438-1.48 15.022-1.48 22.726s.507 15.288 1.48 22.726c.528 4.031 3.996 7.03 8.061 7.03h38.193c3.599 0 6.744 2.376 7.778 5.823 2.405 8.022 5.599 15.702 9.5 22.947 1.707 3.171 1.166 7.075-1.381 9.622l-26.995 26.995c-2.875 2.875-3.204 7.451-.727 10.676 9.264 12.059 20.073 22.869 32.133 32.133 3.225 2.477 7.8 2.148 10.676-.727l26.995-26.995c2.546-2.546 6.451-3.088 9.622-1.381 7.245 3.901 14.925 7.094 22.947 9.5 3.447 1.034 5.823 4.179 5.823 7.778v38.193c0 4.065 2.999 7.534 7.03 8.061 7.438.974 15.022 1.48 22.726 1.48s15.288-.507 22.726-1.48c4.031-.528 7.03-3.996 7.03-8.061v-38.193c0-3.599 2.376-6.744 5.823-7.778 8.022-2.405 15.702-5.599 22.947-9.5 3.171-1.707 7.075-1.166 9.622 1.381l25.802 25.802c-4.056-11.048-6.27-22.977-6.27-35.412z" fill="#7ca1b1"/><g><path d="m158.823 395.017c-34.24-14.392-58.347-48.275-58.347-87.685s24.106-73.293 58.346-87.685c16.456-24.02 39.468-43.196 66.475-54.914v-21.72c0-4.066-2.999-7.534-7.03-8.062-7.438-.974-15.022-1.48-22.726-1.48-7.703 0-15.288.506-22.726 1.48-4.031.528-7.03 3.996-7.03 8.062v38.193c0 3.599-2.376 6.744-5.823 7.778-8.022 2.405-15.702 5.599-22.947 9.5-3.171 1.707-7.075 1.166-9.622-1.381l-26.995-26.995c-2.875-2.875-7.451-3.204-10.676-.727-12.059 9.264-22.869 20.074-32.133 32.133-2.477 3.225-2.149 7.8.727 10.676l26.995 26.995c2.546 2.546 3.088 6.451 1.381 9.622-3.9 7.245-7.094 14.925-9.5 22.947-1.034 3.447-4.179 5.823-7.778 5.823h-38.191c-4.065 0-7.534 2.999-8.061 7.03-.974 7.438-1.48 15.022-1.48 22.726s.507 15.288 1.48 22.726c.528 4.031 3.996 7.03 8.061 7.03h38.193c3.599 0 6.744 2.376 7.778 5.823 2.405 8.022 5.599 15.703 9.5 22.947 1.707 3.171 1.166 7.075-1.381 9.622l-26.995 26.995c-2.875 2.875-3.204 7.451-.727 10.676 9.264 12.059 20.074 22.869 32.133 32.133 3.225 2.477 7.8 2.148 10.676-.727l26.995-26.995c2.546-2.546 6.451-3.088 9.622-1.381 7.245 3.901 14.925 7.094 22.947 9.5 3.447 1.033 5.823 4.179 5.823 7.778v38.193c0 4.066 2.999 7.534 7.03 8.062 7.438.974 15.022 1.48 22.726 1.48s15.288-.507 22.726-1.48c4.031-.528 7.03-3.996 7.03-8.062v-21.72c-27.008-11.721-50.02-30.897-66.476-54.916z" fill="#678d98"/></g><g><circle cx="195.542" cy="307.331" fill="#dff6fd" r="87.565"/></g><g><path d="m139.59 307.331c0-42.961 30.947-78.671 71.759-86.115-5.13-.936-10.407-1.45-15.807-1.45-48.361 0-87.565 39.204-87.565 87.565s39.204 87.565 87.565 87.565c5.4 0 10.677-.514 15.807-1.45-40.812-7.444-71.759-43.153-71.759-86.115z" fill="#c8effe"/></g><g><circle cx="195.542" cy="307.331" fill="#678d98" r="53.162"/></g><g><path d="m174.4 307.331c0-23.781 15.617-43.91 37.152-50.704-5.053-1.594-10.43-2.458-16.01-2.458-29.361 0-53.162 23.801-53.162 53.162s23.802 53.162 53.162 53.162c5.58 0 10.957-.864 16.01-2.458-21.536-6.793-37.152-26.923-37.152-50.704z" fill="#537983"/></g><g><path d="m195.542 212.266c-52.419 0-95.065 42.646-95.065 95.065s42.646 95.065 95.065 95.065 95.065-42.646 95.065-95.065-42.646-95.065-95.065-95.065zm0 175.131c-44.148 0-80.065-35.917-80.065-80.065s35.917-80.065 80.065-80.065 80.065 35.917 80.065 80.065-35.917 80.065-80.065 80.065z" fill="#8ebac5"/></g><g><circle cx="195.542" cy="307.331" fill="#fff" r="22.36"/></g><path d="m367.3 176.779h26.911c1.707 0 3.091 1.384 3.091 3.091v125.625c17.681 1.89 34.037 8.271 47.906 17.976v-143.601c0-1.707 1.384-3.091 3.091-3.091h25.944c2.522 0 3.982-2.858 2.504-4.901l-53.01-73.305c-1.227-1.697-3.752-1.708-4.994-.021l-53.933 73.305c-1.501 2.041-.044 4.922 2.49 4.922z" fill="#05e39c"/><g><g><path d="m435.739 115.17-12.002-16.598c-1.227-1.697-3.752-1.708-4.994-.02l-53.933 73.305c-1.501 2.041-.044 4.922 2.489 4.922h23.112z" fill="#0ed290"/></g></g><g><circle cx="386.271" cy="407.952" fill="#fd5426" r="104.048"/></g><path d="m339.084 478.366c-22.663-15.237-37.607-41.112-37.607-70.414 0-29.303 14.944-55.177 37.607-70.415 15.884-17.266 37.53-29.148 61.89-32.594-4.804-.68-9.712-1.039-14.704-1.039-57.464 0-104.048 46.584-104.048 104.048s46.584 104.048 104.048 104.048c4.992 0 9.899-.359 14.704-1.039-24.36-3.446-46.006-15.329-61.89-32.595z" fill="#ef4424"/><ellipse cx="386.271" cy="407.952" fill="#fff" rx="71.794" ry="71.794" transform="matrix(.987 -.16 .16 .987 -60.359 67.142)"/><path d="m386.52 336.164c-.084 0-.166-.006-.25-.006-39.587 0-71.793 32.207-71.793 71.794s32.207 71.794 71.793 71.794c.084 0 .166-.006.249-.006-27.678-12.083-47.075-39.708-47.075-71.788s19.398-59.705 47.076-71.788z" fill="#eef5f6"/><g><path d="m386.271 493.746c-47.307 0-85.793-38.487-85.793-85.794s38.487-85.794 85.793-85.794c47.307 0 85.794 38.487 85.794 85.794s-38.487 85.794-85.794 85.794zm0-156.588c-39.036 0-70.793 31.758-70.793 70.794s31.758 70.794 70.793 70.794c39.036 0 70.794-31.758 70.794-70.794s-31.758-70.794-70.794-70.794z" fill="#d73d24"/></g><g><path d="m386.27 415.452c-1.229 0-2.46-.302-3.579-.909-2.416-1.313-3.92-3.841-3.92-6.591v-55.113c0-4.142 3.358-7.5 7.5-7.5s7.5 3.358 7.5 7.5v41.303l23.538-15.279c3.473-2.255 8.119-1.268 10.375 2.208 2.255 3.474 1.267 8.119-2.208 10.375l-35.122 22.798c-1.238.802-2.659 1.208-4.084 1.208z" fill="#537983"/></g></g></svg>